<svg xmlns="http://www.w3.org/2000/svg" viewBox="0 0 62 54.01"><defs><style>.cls-1{fill:#cdf0f0;}.cls-2{fill:#000064;opacity:0.1;}.cls-3{fill:#fff;opacity:0.5;}.cls-4{fill:#cdebf2;}.cls-5{fill:none;stroke:#2e4369;stroke-linecap:round;stroke-linejoin:round;stroke-width:2px;}</style></defs><title>rain</title><g id="圖層_2" data-name="圖層 2"><g id="Layer_1" data-name="Layer 1"><path class="cls-1" d="M48,11c-.17,0-.33,0-.5,0a17,17,0,0,0-32.29,4.45A11,11,0,1,0,12,37H48a13,13,0,0,0,0-26Z"/><path class="cls-2" d="M15,19a18.09,18.09,0,0,1,.34-3.48l-.16,0A10.78,10.78,0,0,0,12,15a11,11,0,0,0,0,22H33A18,18,0,0,1,15,19Z"/><path class="cls-3" d="M61,24A13,13,0,0,0,48,11c-.17,0-.33,0-.5,0A17,17,0,0,0,35.17,1.3c-.39-.07-.78-.14-1.18-.18l-.25,0A16.61,16.61,0,0,0,32,1a17.47,17.47,0,0,0-3.17.29,16.82,16.82,0,0,0-8.26,4.15A22.87,22.87,0,0,1,42,12.5a13.17,13.17,0,0,0-4.16,3.44A15,15,0,0,1,58,30a15.33,15.33,0,0,1-.23,2.56A13,13,0,0,0,61,24Z"/><path class="cls-4" d="M37,46.43A6.38,6.38,0,0,0,36.69,45C35.46,40.64,31,35,31,35s-4.46,5.63-5.69,10A6.38,6.38,0,0,0,25,46.43c0,.15,0,.31,0,.46a6,6,0,1,0,12,0C37,46.74,37,46.58,37,46.43Z"/><path class="cls-2" d="M33,49a6.06,6.06,0,0,1-6-6.12c0-.15,0-.31,0-.46A6.38,6.38,0,0,1,27.31,41a10.42,10.42,0,0,1,.38-1.11A23,23,0,0,0,25.31,45,6.38,6.38,0,0,0,25,46.43c0,.15,0,.31,0,.46a6,6,0,0,0,12,.58A5.94,5.94,0,0,1,33,49Z"/><path class="cls-5" d="M41,37h7a13,13,0,1,0,0-26l-.5,0a17,17,0,0,0-32.29,4.45A11,11,0,1,0,12,37h9"/><path class="cls-5" d="M37,46.43A6.38,6.38,0,0,0,36.69,45C35.46,40.64,31,35,31,35s-4.46,5.63-5.69,10A6.38,6.38,0,0,0,25,46.43c0,.15,0,.31,0,.46a6,6,0,1,0,12,0C37,46.74,37,46.58,37,46.43Z"/></g></g></svg>