<svg xmlns="http://www.w3.org/2000/svg" viewBox="0 0 62 49.99"><defs><style>.cls-1{fill:#cdf0f0;}.cls-2{fill:#fff;opacity:0.5;}.cls-3{fill:none;stroke:#2e4369;stroke-linecap:round;stroke-linejoin:round;stroke-width:2px;}</style></defs><title>wind</title><g id="圖層_2" data-name="圖層 2"><g id="圖層_1-2" data-name="圖層 1"><path class="cls-1" d="M55,33H42a4,4,0,1,1,0-8h7a8,8,0,1,0-6-13.23c0-.26,0-.51,0-.77a10,10,0,1,0-19.8,2H15a14,14,0,0,0,0,28c4,0,6.79-.05,8.39,2.48h0a8,8,0,0,0,15.58-2h6c2,0,3.64-.38,5.7,1.68h0A6,6,0,1,0,55,33Z"/><path class="cls-2" d="M55,33a6,6,0,0,0-4.48,2L51,35a8,8,0,0,1,8,8c0,.17,0,.33,0,.49A6,6,0,0,0,55,33Z"/><path class="cls-2" d="M31,33a8,8,0,0,0-6.31,3.1A9.51,9.51,0,0,1,26,36,10,10,0,0,1,36,46a11.22,11.22,0,0,1-.09,1.31A8,8,0,0,0,31,33Z"/><path class="cls-2" d="M45,11A10,10,0,0,1,55,21a9.23,9.23,0,0,1-.11,1.4A8,8,0,0,0,49,9a8,8,0,0,0-5.4,2.11A10.86,10.86,0,0,1,45,11Z"/><path class="cls-2" d="M33,1a10,10,0,0,0-7.35,3.24A11.42,11.42,0,0,1,28,4,12,12,0,0,1,39.77,18.34,10,10,0,0,0,33,1Z"/><path class="cls-3" d="M33,1A10,10,0,0,1,43,11h0A10,10,0,0,1,33,21H7a6,6,0,0,0-6,6H1a6,6,0,0,0,6,6H31a8,8,0,0,1,8,8h0a8,8,0,0,1-8,8"/><path class="cls-3" d="M25,5a4,4,0,0,1,4,4h0a4,4,0,0,1-4,4H13"/><path class="cls-3" d="M49,9a8,8,0,0,1,8,8h0a8,8,0,0,1-8,8H43"/><path class="cls-3" d="M55,45a6,6,0,0,0,6-6h0a6,6,0,0,0-6-6H43"/></g></g></svg>