<svg xmlns="http://www.w3.org/2000/svg" viewBox="0 0 42 62"><defs><style>.cls-1{fill:#cdebf2;}.cls-2{fill:#000064;opacity:0.1;}.cls-3{fill:#fff;}.cls-4{fill:none;stroke:#2e4369;stroke-linecap:round;stroke-linejoin:round;stroke-width:2px;}</style></defs><title>資產 1</title><g id="圖層_2" data-name="圖層 2"><g id="圖層_1-2" data-name="圖層 1"><path class="cls-1" d="M40.92,39.05a20.36,20.36,0,0,0-1-4.9C35.88,19.76,21,1,21,1S6.12,19.76,2,34.15a20.36,20.36,0,0,0-1,4.9C1,39.58,1,40.1,1,40.6A20.2,20.2,0,0,0,21,61,20.2,20.2,0,0,0,41,40.6C41,40.1,41,39.58,40.92,39.05Z"/><path class="cls-2" d="M26,52A20.2,20.2,0,0,1,6,31.6c0-.5,0-1,.08-1.55a20.36,20.36,0,0,1,1-4.9,57,57,0,0,1,3.74-9.38C7.23,21.56,3.72,28.22,2,34.15a20.36,20.36,0,0,0-1,4.9C1,39.58,1,40.1,1,40.6A20.2,20.2,0,0,0,21,61,20.06,20.06,0,0,0,40.31,45.84,19.77,19.77,0,0,1,26,52Z"/><path class="cls-3" d="M35,39a7,7,0,0,1-14,0c0-3.87,3.13-12,7-12S35,35.13,35,39Z"/><path class="cls-4" d="M40.92,39.05a20.36,20.36,0,0,0-1-4.9C35.88,19.76,21,1,21,1S6.12,19.76,2,34.15a20.36,20.36,0,0,0-1,4.9C1,39.58,1,40.1,1,40.6A20.2,20.2,0,0,0,21,61,20.2,20.2,0,0,0,41,40.6C41,40.1,41,39.58,40.92,39.05Z"/><line class="cls-4" x1="27" y1="29.02" x2="15" y2="49.02"/><circle class="cls-4" cx="15" cy="31" r="4"/><circle class="cls-4" cx="27" cy="47.02" r="4"/></g></g></svg>